<mxfile host="Electron" agent="Mozilla/5.0 (Windows NT 10.0; Win64; x64) AppleWebKit/537.36 (KHTML, like Gecko) draw.io/24.7.5 Chrome/126.0.6478.183 Electron/31.3.0 Safari/537.36" version="24.7.5">
  <diagram name="Page-1" id="IT6kQJFEcfhP4wsTETC0">
    <mxGraphModel dx="880" dy="532" grid="1" gridSize="10" guides="1" tooltips="1" connect="1" arrows="1" fold="1" page="1" pageScale="1" pageWidth="850" pageHeight="1100" math="0" shadow="0">
      <root>
        <mxCell id="0" />
        <mxCell id="1" parent="0" />
        <mxCell id="GihQ_tLNTAgM7v1QKoXF-3" value="Infrastructure Layer" style="rounded=0;whiteSpace=wrap;html=1;rotation=90;fillColor=#dae8fc;strokeColor=#6c8ebf;" vertex="1" parent="1">
          <mxGeometry x="480" y="340" width="120" height="60" as="geometry" />
        </mxCell>
        <mxCell id="GihQ_tLNTAgM7v1QKoXF-4" value="Prsentation Layer" style="rounded=0;whiteSpace=wrap;html=1;fillColor=#dae8fc;strokeColor=#6c8ebf;" vertex="1" parent="1">
          <mxGeometry x="300" y="120" width="120" height="60" as="geometry" />
        </mxCell>
        <mxCell id="GihQ_tLNTAgM7v1QKoXF-8" value="" style="endArrow=classic;html=1;rounded=0;entryX=0;entryY=0.5;entryDx=0;entryDy=0;" edge="1" parent="1">
          <mxGeometry width="50" height="50" relative="1" as="geometry">
            <mxPoint x="140" y="150" as="sourcePoint" />
            <mxPoint x="260" y="150" as="targetPoint" />
          </mxGeometry>
        </mxCell>
        <mxCell id="GihQ_tLNTAgM7v1QKoXF-10" value="Request" style="edgeLabel;html=1;align=center;verticalAlign=middle;resizable=0;points=[];" vertex="1" connectable="0" parent="GihQ_tLNTAgM7v1QKoXF-8">
          <mxGeometry x="-0.3833" y="3" relative="1" as="geometry">
            <mxPoint x="13" y="-7" as="offset" />
          </mxGeometry>
        </mxCell>
        <mxCell id="GihQ_tLNTAgM7v1QKoXF-9" value="" style="endArrow=classic;html=1;rounded=0;" edge="1" parent="1">
          <mxGeometry width="50" height="50" relative="1" as="geometry">
            <mxPoint x="250" y="170" as="sourcePoint" />
            <mxPoint x="140" y="170" as="targetPoint" />
          </mxGeometry>
        </mxCell>
        <mxCell id="GihQ_tLNTAgM7v1QKoXF-11" value="Reposne&amp;nbsp;" style="edgeLabel;html=1;align=center;verticalAlign=middle;resizable=0;points=[];" vertex="1" connectable="0" parent="GihQ_tLNTAgM7v1QKoXF-9">
          <mxGeometry x="0.1636" y="-2" relative="1" as="geometry">
            <mxPoint x="4" y="12" as="offset" />
          </mxGeometry>
        </mxCell>
        <mxCell id="GihQ_tLNTAgM7v1QKoXF-12" value="" style="endArrow=classic;html=1;rounded=0;" edge="1" parent="1">
          <mxGeometry width="50" height="50" relative="1" as="geometry">
            <mxPoint x="400" y="190" as="sourcePoint" />
            <mxPoint x="400" y="280" as="targetPoint" />
          </mxGeometry>
        </mxCell>
        <mxCell id="GihQ_tLNTAgM7v1QKoXF-13" value="Command / Query" style="edgeLabel;html=1;align=center;verticalAlign=middle;resizable=0;points=[];rotation=90;" vertex="1" connectable="0" parent="GihQ_tLNTAgM7v1QKoXF-12">
          <mxGeometry x="-0.3833" y="3" relative="1" as="geometry">
            <mxPoint x="22" y="13" as="offset" />
          </mxGeometry>
        </mxCell>
        <mxCell id="GihQ_tLNTAgM7v1QKoXF-14" value="" style="group" vertex="1" connectable="0" parent="1">
          <mxGeometry x="310" y="290" width="120" height="250" as="geometry" />
        </mxCell>
        <mxCell id="GihQ_tLNTAgM7v1QKoXF-1" value="Application Layer" style="rounded=0;whiteSpace=wrap;html=1;fillColor=#dae8fc;strokeColor=#6c8ebf;fillStyle=solid;" vertex="1" parent="GihQ_tLNTAgM7v1QKoXF-14">
          <mxGeometry width="120" height="60" as="geometry" />
        </mxCell>
        <mxCell id="GihQ_tLNTAgM7v1QKoXF-2" value="Domain Layer" style="rounded=0;whiteSpace=wrap;html=1;fillColor=#dae8fc;strokeColor=#6c8ebf;" vertex="1" parent="GihQ_tLNTAgM7v1QKoXF-14">
          <mxGeometry y="100" width="120" height="60" as="geometry" />
        </mxCell>
        <mxCell id="GihQ_tLNTAgM7v1QKoXF-5" value="Shared Kernel" style="rounded=0;whiteSpace=wrap;html=1;fillColor=#dae8fc;strokeColor=#6c8ebf;" vertex="1" parent="GihQ_tLNTAgM7v1QKoXF-14">
          <mxGeometry y="190" width="120" height="60" as="geometry" />
        </mxCell>
        <mxCell id="GihQ_tLNTAgM7v1QKoXF-6" value="" style="endArrow=block;html=1;rounded=0;endFill=0;" edge="1" parent="GihQ_tLNTAgM7v1QKoXF-14" source="GihQ_tLNTAgM7v1QKoXF-2" target="GihQ_tLNTAgM7v1QKoXF-5">
          <mxGeometry width="50" height="50" relative="1" as="geometry">
            <mxPoint x="40" y="70" as="sourcePoint" />
            <mxPoint x="90" y="20" as="targetPoint" />
          </mxGeometry>
        </mxCell>
        <mxCell id="GihQ_tLNTAgM7v1QKoXF-7" value="" style="endArrow=block;html=1;rounded=0;endFill=0;" edge="1" parent="GihQ_tLNTAgM7v1QKoXF-14" source="GihQ_tLNTAgM7v1QKoXF-1" target="GihQ_tLNTAgM7v1QKoXF-2">
          <mxGeometry width="50" height="50" relative="1" as="geometry">
            <mxPoint x="40" y="70" as="sourcePoint" />
            <mxPoint x="90" y="20" as="targetPoint" />
          </mxGeometry>
        </mxCell>
        <mxCell id="GihQ_tLNTAgM7v1QKoXF-15" value="" style="endArrow=classic;html=1;rounded=0;exitX=0.175;exitY=-0.067;exitDx=0;exitDy=0;exitPerimeter=0;" edge="1" parent="1" source="GihQ_tLNTAgM7v1QKoXF-1">
          <mxGeometry width="50" height="50" relative="1" as="geometry">
            <mxPoint x="350" y="280" as="sourcePoint" />
            <mxPoint x="330" y="200" as="targetPoint" />
            <Array as="points">
              <mxPoint x="330" y="250" />
            </Array>
          </mxGeometry>
        </mxCell>
        <mxCell id="GihQ_tLNTAgM7v1QKoXF-16" value="Result" style="edgeLabel;html=1;align=center;verticalAlign=middle;resizable=0;points=[];rotation=-90;" vertex="1" connectable="0" parent="GihQ_tLNTAgM7v1QKoXF-15">
          <mxGeometry x="-0.3833" y="3" relative="1" as="geometry">
            <mxPoint x="-17" y="-19" as="offset" />
          </mxGeometry>
        </mxCell>
        <mxCell id="GihQ_tLNTAgM7v1QKoXF-17" value="" style="endArrow=block;html=1;rounded=0;endFill=0;" edge="1" parent="1" source="GihQ_tLNTAgM7v1QKoXF-3" target="GihQ_tLNTAgM7v1QKoXF-2">
          <mxGeometry width="50" height="50" relative="1" as="geometry">
            <mxPoint x="170" y="180" as="sourcePoint" />
            <mxPoint x="290" y="180" as="targetPoint" />
          </mxGeometry>
        </mxCell>
        <mxCell id="GihQ_tLNTAgM7v1QKoXF-19" value="" style="endArrow=block;html=1;rounded=0;endFill=0;" edge="1" parent="1" source="GihQ_tLNTAgM7v1QKoXF-3">
          <mxGeometry width="50" height="50" relative="1" as="geometry">
            <mxPoint x="520" y="389" as="sourcePoint" />
            <mxPoint x="430" y="320" as="targetPoint" />
          </mxGeometry>
        </mxCell>
        <mxCell id="GihQ_tLNTAgM7v1QKoXF-20" value="" style="endArrow=classic;html=1;rounded=0;entryX=0;entryY=0.5;entryDx=0;entryDy=0;" edge="1" parent="1">
          <mxGeometry width="50" height="50" relative="1" as="geometry">
            <mxPoint x="560" y="140" as="sourcePoint" />
            <mxPoint x="680" y="140" as="targetPoint" />
          </mxGeometry>
        </mxCell>
        <mxCell id="GihQ_tLNTAgM7v1QKoXF-21" value="Communication" style="edgeLabel;html=1;align=center;verticalAlign=middle;resizable=0;points=[];" vertex="1" connectable="0" parent="GihQ_tLNTAgM7v1QKoXF-20">
          <mxGeometry x="-0.3833" y="3" relative="1" as="geometry">
            <mxPoint x="13" y="-7" as="offset" />
          </mxGeometry>
        </mxCell>
        <mxCell id="GihQ_tLNTAgM7v1QKoXF-22" value="" style="endArrow=block;html=1;rounded=0;entryX=0;entryY=0.5;entryDx=0;entryDy=0;endFill=0;" edge="1" parent="1">
          <mxGeometry width="50" height="50" relative="1" as="geometry">
            <mxPoint x="560" y="170" as="sourcePoint" />
            <mxPoint x="680" y="170" as="targetPoint" />
          </mxGeometry>
        </mxCell>
        <mxCell id="GihQ_tLNTAgM7v1QKoXF-23" value="Depend on" style="edgeLabel;html=1;align=center;verticalAlign=middle;resizable=0;points=[];" vertex="1" connectable="0" parent="GihQ_tLNTAgM7v1QKoXF-22">
          <mxGeometry x="-0.3833" y="3" relative="1" as="geometry">
            <mxPoint x="13" y="-7" as="offset" />
          </mxGeometry>
        </mxCell>
        <mxCell id="GihQ_tLNTAgM7v1QKoXF-24" value="" style="endArrow=block;html=1;rounded=0;endFill=0;exitX=0.575;exitY=1.017;exitDx=0;exitDy=0;exitPerimeter=0;entryX=0.5;entryY=0;entryDx=0;entryDy=0;" edge="1" parent="1" source="GihQ_tLNTAgM7v1QKoXF-4" target="GihQ_tLNTAgM7v1QKoXF-1">
          <mxGeometry width="50" height="50" relative="1" as="geometry">
            <mxPoint x="570" y="180" as="sourcePoint" />
            <mxPoint x="690" y="180" as="targetPoint" />
          </mxGeometry>
        </mxCell>
      </root>
    </mxGraphModel>
  </diagram>
</mxfile>
